<?xml version="1.0" standalone="no"?>
<!DOCTYPE svg PUBLIC "-//W3C//DTD SVG 20010904//EN"
 "http://www.w3.org/TR/2001/REC-SVG-20010904/DTD/svg10.dtd">
<svg version="1.0" xmlns="http://www.w3.org/2000/svg"
 width="500.000000pt" height="500.000000pt" viewBox="0 0 500.000000 500.000000"
 preserveAspectRatio="xMidYMid meet">

<g transform="translate(0.000000,500.000000) scale(0.100000,-0.100000)"
fill="#000000" stroke="none">
<path d="M1833 2995 c-165 -45 -264 -149 -309 -325 -23 -93 -15 -310 15 -395
68 -189 219 -285 448 -285 260 0 410 106 469 331 23 87 23 272 0 359 -45 171
-142 273 -301 315 -74 19 -251 19 -322 0z m240 -219 c85 -35 122 -131 115
-301 -3 -93 -8 -120 -29 -161 -74 -149 -285 -135 -346 24 -14 36 -18 75 -18
167 0 113 2 123 30 180 22 45 40 66 70 82 47 26 128 31 178 9z"/>
<path d="M2660 2501 l0 -501 135 0 135 0 0 180 0 180 34 0 c34 0 35 -2 138
-180 l103 -179 154 -1 153 0 -18 28 c-9 15 -74 111 -142 215 l-125 187 57 51
c83 75 101 114 101 224 0 106 -19 151 -87 209 -76 65 -139 78 -405 84 l-233 4
0 -501z m417 269 c53 -32 57 -111 9 -166 -20 -24 -32 -28 -90 -32 l-66 -4 0
111 0 111 58 0 c39 0 67 -6 89 -20z"/>
</g>
</svg>
